<?xml version="1.0" encoding="UTF-8" standalone="no"?>
<!-- Created with Inkscape (http://www.inkscape.org/) -->

<svg
   xmlns:dc="http://purl.org/dc/elements/1.1/"
   xmlns:cc="http://creativecommons.org/ns#"
   xmlns:rdf="http://www.w3.org/1999/02/22-rdf-syntax-ns#"
   xmlns:svg="http://www.w3.org/2000/svg"
   xmlns="http://www.w3.org/2000/svg"
   xmlns:xlink="http://www.w3.org/1999/xlink"
   xmlns:sodipodi="http://sodipodi.sourceforge.net/DTD/sodipodi-0.dtd"
   xmlns:inkscape="http://www.inkscape.org/namespaces/inkscape"
   width="744.09448819"
   height="1052.3622047"
   id="svg2"
   version="1.1"
   inkscape:version="0.47 r22583"
   sodipodi:docname="icons.svg">
  <defs
     id="defs4">
    <linearGradient
       id="linearGradient3629">
      <stop
         id="stop3631"
         offset="0"
         style="stop-color:#cc00cc;stop-opacity:1;" />
      <stop
         style="stop-color:#cc00cc;stop-opacity:1;"
         offset="0.75999999"
         id="stop3633" />
      <stop
         id="stop3635"
         offset="0.88"
         style="stop-color:#ffb6ff;stop-opacity:1;" />
      <stop
         style="stop-color:#cc00cc;stop-opacity:1;"
         offset="0.97000003"
         id="stop3637" />
      <stop
         id="stop3640"
         offset="1"
         style="stop-color:#cc00cc;stop-opacity:1;" />
    </linearGradient>
    <linearGradient
       id="linearGradient3680">
      <stop
         style="stop-color:#008eff;stop-opacity:1;"
         offset="0"
         id="stop3682" />
      <stop
         id="stop3688"
         offset="0.75999999"
         style="stop-color:#008eff;stop-opacity:1;" />
      <stop
         style="stop-color:#9ed5ff;stop-opacity:1;"
         offset="0.88"
         id="stop3690" />
      <stop
         id="stop3692"
         offset="0.97000003"
         style="stop-color:#008eff;stop-opacity:1;" />
      <stop
         style="stop-color:#008eff;stop-opacity:1;"
         offset="1"
         id="stop3684" />
    </linearGradient>
    <linearGradient
       id="linearGradient3637">
      <stop
         style="stop-color:#00c000;stop-opacity:1;"
         offset="0"
         id="stop3639" />
      <stop
         id="stop3649"
         offset="0.60298783"
         style="stop-color:#00c000;stop-opacity:1;" />
      <stop
         id="stop3645"
         offset="0.79000002"
         style="stop-color:#7ff07f;stop-opacity:1;" />
      <stop
         style="stop-color:#00c000;stop-opacity:1;"
         offset="0.94"
         id="stop3647" />
      <stop
         style="stop-color:#00c000;stop-opacity:1;"
         offset="1"
         id="stop3641" />
    </linearGradient>
    <inkscape:perspective
       sodipodi:type="inkscape:persp3d"
       inkscape:vp_x="0 : 526.18109 : 1"
       inkscape:vp_y="0 : 1000 : 0"
       inkscape:vp_z="744.09448 : 526.18109 : 1"
       inkscape:persp3d-origin="372.04724 : 350.78739 : 1"
       id="perspective10" />
    <linearGradient
       inkscape:collect="always"
       xlink:href="#linearGradient3680"
       id="linearGradient3712"
       gradientUnits="userSpaceOnUse"
       x1="135.80625"
       y1="451.07812"
       x2="320.19375"
       y2="451.07812" />
    <linearGradient
       inkscape:collect="always"
       xlink:href="#linearGradient3637"
       id="linearGradient3725"
       gradientUnits="userSpaceOnUse"
       x1="199.65625"
       y1="228.10551"
       x2="315.96875"
       y2="228.10551" />
    <linearGradient
       inkscape:collect="always"
       xlink:href="#linearGradient3629"
       id="linearGradient2855"
       gradientUnits="userSpaceOnUse"
       x1="135.80624"
       y1="451.07812"
       x2="320.19376"
       y2="451.07812" />
  </defs>
  <sodipodi:namedview
     id="base"
     pagecolor="#ffffff"
     bordercolor="#666666"
     borderopacity="1.0"
     inkscape:pageopacity="0.0"
     inkscape:pageshadow="2"
     inkscape:zoom="0.61480735"
     inkscape:cx="89.031756"
     inkscape:cy="526.18109"
     inkscape:document-units="px"
     inkscape:current-layer="layer1"
     showgrid="false"
     inkscape:window-width="1176"
     inkscape:window-height="893"
     inkscape:window-x="0"
     inkscape:window-y="78"
     inkscape:window-maximized="0" />
  <metadata
     id="metadata7">
    <rdf:RDF>
      <cc:Work
         rdf:about="">
        <dc:format>image/svg+xml</dc:format>
        <dc:type
           rdf:resource="http://purl.org/dc/dcmitype/StillImage" />
        <dc:title />
      </cc:Work>
    </rdf:RDF>
  </metadata>
  <g
     inkscape:label="Layer 1"
     inkscape:groupmode="layer"
     id="layer1"
     style="opacity:0.9">
    <g
       id="disk_icon"
       inkscape:label="#g3732"
       style="stroke-width:0;stroke-miterlimit:4;stroke-dasharray:none"
       transform="translate(0.7916851,9.5002211)">
      <rect
         style="fill:#ffffff;fill-opacity:0;stroke:none"
         id="rect3703"
         width="183.67093"
         height="178.12914"
         x="131.94781"
         y="124.10344" />
      <path
         id="path3618"
         d="m 223.0625,271.96102 -22.90625,27.84375"
         style="fill:#00c000;fill-opacity:1;stroke:#000000;stroke-width:0;stroke-miterlimit:4;stroke-opacity:1;stroke-dasharray:none" />
      <path
         id="path3604"
         d="m 315.46875,270.96102 c 0,-16.50259 -40.91164,-29.875 -91.40625,-29.875 -29.16256,0 -55.13404,4.45698 -71.875,11.40625"
         style="fill:#00c000;fill-opacity:1;stroke:#000000;stroke-width:0;stroke-miterlimit:4;stroke-opacity:1;stroke-dasharray:none" />
      <path
         sodipodi:nodetypes="ccccc"
         d="m 223.0625,156.375 0,115.58602 -70.875,-19.46875 0,-115.58602 70.875,19.46875 z"
         style="fill:#00a000;fill-opacity:1;stroke:#000000;stroke-width:2.5;stroke-linejoin:round;stroke-miterlimit:4;stroke-opacity:1;stroke-dasharray:none"
         id="path3626" />
      <path
         id="path2816"
         d="m 224.0625,125.5 c -29.16256,0 -55.13404,4.45698 -71.875,11.40625 l 70.875,19.46875 -22.90625,27.84375 c 7.61457,0.67176 15.64194,1.03125 23.90625,1.03125 50.49461,0 91.40625,-13.37241 91.40625,-29.875 0,-16.50259 -40.91164,-29.875 -91.40625,-29.875 z"
         style="fill:#00c000;fill-opacity:1;stroke:#000000;stroke-width:2.5;stroke-linejoin:round;stroke-miterlimit:4;stroke-opacity:1;stroke-dasharray:none" />
      <path
         id="path3628"
         d="m 223.0625,156.375 -22.90625,27.84375"
         style="fill:#00c000;fill-opacity:1;stroke:#000000;stroke-width:0;stroke-miterlimit:4;stroke-opacity:1;stroke-dasharray:none" />
      <path
         sodipodi:nodetypes="ccsccsc"
         d="m 315.46875,270.96102 c 0,-16.50259 0,-132.08861 0,-115.58602 0,16.50259 -40.91164,29.875 -91.40625,29.875 -8.26431,0 -16.29168,-0.35949 -23.90625,-1.03125 l 0,115.58602 c 7.61457,0.67176 15.64194,1.03125 23.90625,1.03125 50.49461,0 91.40625,-13.37241 91.40625,-29.875 z"
         style="fill:url(#linearGradient3725);fill-opacity:1;stroke:#000000;stroke-width:2.5;stroke-linejoin:round;stroke-miterlimit:4;stroke-opacity:1;stroke-dasharray:none"
         id="path3624" />
    </g>
    <g
       id="fs_icon"
       inkscape:label="#g3714"
       transform="translate(-3.0372736,-5.9733499)">
      <rect
         y="346.9729"
         x="136.16454"
         height="178.12914"
         width="183.67093"
         id="rect3701"
         style="fill:#ffffff;fill-opacity:0;stroke:none" />
      <path
         id="rect3674"
         d="m 136.15625,377.84375 0,116.375 c 0,16.61495 41.12442,30.09375 91.84375,30.09375 50.71933,0 91.84375,-13.4788 91.84375,-30.09375 l 0,-116.375 -183.6875,0 z"
         style="fill:url(#linearGradient3712);fill-opacity:1;stroke:#000000;stroke-width:2.5;stroke-linecap:round;stroke-linejoin:round;stroke-miterlimit:4;stroke-opacity:1;stroke-dasharray:none;stroke-dashoffset:0" />
      <path
         transform="translate(3.1667325,8.7085268)"
         d="m 316.67403,369.13794 c 0,16.61495 -41.11614,30.08403 -91.83547,30.08403 -50.71933,0 -91.83547,-13.46908 -91.83547,-30.08403 0,-16.61495 41.11614,-30.08403 91.83547,-30.08403 50.71933,0 91.83547,13.46908 91.83547,30.08403 z"
         sodipodi:ry="30.084034"
         sodipodi:rx="91.835472"
         sodipodi:cy="369.13794"
         sodipodi:cx="224.83856"
         id="path3659"
         style="fill:#008eff;fill-opacity:1;stroke:#000000;stroke-width:2.5;stroke-linecap:round;stroke-linejoin:round;stroke-miterlimit:4;stroke-opacity:1;stroke-dasharray:none;stroke-dashoffset:0"
         sodipodi:type="arc" />
      <path
         id="path3663"
         d="m 319.84076,394.47185 c 0,16.61495 -41.11614,30.08403 -91.83547,30.08403 -50.71933,0 -91.83547,-13.46908 -91.83547,-30.08403"
         style="fill:none;stroke:#000000;stroke-width:2.5;stroke-linecap:round;stroke-linejoin:round;stroke-miterlimit:4;stroke-opacity:1;stroke-dasharray:none;stroke-dashoffset:0" />
      <path
         style="fill:none;stroke:#000000;stroke-width:2.5;stroke-linecap:round;stroke-linejoin:round;stroke-miterlimit:4;stroke-opacity:1;stroke-dasharray:none;stroke-dashoffset:0"
         d="m 319.84076,411.09728 c 0,16.61495 -41.11614,30.08403 -91.83547,30.08403 -50.71933,0 -91.83547,-13.46908 -91.83547,-30.08403"
         id="path3670" />
      <path
         id="path3672"
         d="m 319.84076,427.72263 c 0,16.61495 -41.11614,30.08403 -91.83547,30.08403 -50.71933,0 -91.83547,-13.46908 -91.83547,-30.08403"
         style="fill:none;stroke:#000000;stroke-width:2.5;stroke-linecap:round;stroke-linejoin:round;stroke-miterlimit:4;stroke-opacity:1;stroke-dasharray:none;stroke-dashoffset:0" />
    </g>
    <g
       transform="translate(236.06202,-5.9733499)"
       inkscape:label="#g3714"
       id="fs_icon_open">
      <rect
         style="fill:#ffffff;fill-opacity:0;stroke:none"
         id="rect2843"
         width="183.67093"
         height="178.12914"
         x="136.16454"
         y="346.9729" />
      <path
         style="fill:url(#linearGradient2855);fill-opacity:1.0;stroke:#000000;stroke-width:2.50000000000000000;stroke-linecap:round;stroke-linejoin:round;stroke-miterlimit:4;stroke-opacity:1;stroke-dasharray:none;stroke-dashoffset:0"
         d="m 136.15625,377.84375 0,116.375 c 0,16.61495 41.12442,30.09375 91.84375,30.09375 50.71933,0 91.84375,-13.4788 91.84375,-30.09375 l 0,-116.375 -183.6875,0 z"
         id="path2845" />
      <path
         sodipodi:type="arc"
         style="fill:#cc00cc;fill-opacity:1;stroke:#000000;stroke-width:2.50000000000000000;stroke-linecap:round;stroke-linejoin:round;stroke-miterlimit:4;stroke-opacity:1;stroke-dasharray:none;stroke-dashoffset:0"
         id="path2847"
         sodipodi:cx="224.83856"
         sodipodi:cy="369.13794"
         sodipodi:rx="91.835472"
         sodipodi:ry="30.084034"
         d="m 316.67403,369.13794 c 0,16.61495 -41.11614,30.08403 -91.83547,30.08403 -50.71933,0 -91.83547,-13.46908 -91.83547,-30.08403 0,-16.61495 41.11614,-30.08403 91.83547,-30.08403 50.71933,0 91.83547,13.46908 91.83547,30.08403 z"
         transform="translate(3.1667325,8.7085268)" />
      <path
         style="fill:none;stroke:#000000;stroke-width:2.5;stroke-linecap:round;stroke-linejoin:round;stroke-miterlimit:4;stroke-opacity:1;stroke-dasharray:none;stroke-dashoffset:0"
         d="m 319.84076,394.47185 c 0,16.61495 -41.11614,30.08403 -91.83547,30.08403 -50.71933,0 -91.83547,-13.46908 -91.83547,-30.08403"
         id="path2849" />
      <path
         id="path2851"
         d="m 319.84076,411.09728 c 0,16.61495 -41.11614,30.08403 -91.83547,30.08403 -50.71933,0 -91.83547,-13.46908 -91.83547,-30.08403"
         style="fill:none;stroke:#000000;stroke-width:2.5;stroke-linecap:round;stroke-linejoin:round;stroke-miterlimit:4;stroke-opacity:1;stroke-dasharray:none;stroke-dashoffset:0" />
      <path
         style="fill:none;stroke:#000000;stroke-width:2.5;stroke-linecap:round;stroke-linejoin:round;stroke-miterlimit:4;stroke-opacity:1;stroke-dasharray:none;stroke-dashoffset:0"
         d="m 319.84076,427.72263 c 0,16.61495 -41.11614,30.08403 -91.83547,30.08403 -50.71933,0 -91.83547,-13.46908 -91.83547,-30.08403"
         id="path2853" />
    </g>
  </g>
</svg>
